<svg xmlns="http://www.w3.org/2000/svg" viewBox="0 0 309.99 254.03"><defs><style>.cls-1{fill:#9eb227;}</style></defs><g id="Layer_2" data-name="Layer 2"><g id="Layer_1-2" data-name="Layer 1"><path class="cls-1" d="M184.91,64.11a92.87,92.87,0,0,1-22.36-3.55c-.87,2.92-1.85,5.71-2.5,8.58-.79,3.49-1.28,7-1.92,10.55a1.74,1.74,0,0,1-.4,1c-1.61,1.24-3.26,2.42-5,3.7a84.89,84.89,0,0,1,5.12-25.32l-1.45-.58-1.43-.6,2.44-4.31,2.38.72c3.18-7,8.12-13.06,10.23-20.48.66-2.32,1.84-3.09,4-3.56a60.85,60.85,0,0,1,34.53,2.17,5,5,0,0,1,1.83,1.35c1.47,1.6,2.84,3.31,4.3,4.92a51.72,51.72,0,0,1,7.63,10.92c.11.22.19.45.43,1a51.63,51.63,0,0,0-13.68-9l6.89,12.65,7.26-2.88,1.72,4.69-7.25,3a86.08,86.08,0,0,1,5.18,26.71h16.5c-.35-2.55-.59-5-1.06-7.51A51.09,51.09,0,0,0,232.62,63a2.82,2.82,0,0,1-.23-2c.91-2.81,2-5.58,3-8.46,11.73,13.91,18,40.17,5.37,63.79A59.94,59.94,0,0,1,172.14,146l2.49-7.79,10.28,1.56V138c0-5.54,0-11.09,0-16.63a4.24,4.24,0,0,1,.8-2.19c1.33-1.89,2.82-3.67,4.17-5.54a1.64,1.64,0,0,1,1.58-.82,90.73,90.73,0,0,1,20.64,3.26l.48.12c2.27-3.2,5.62-20.07,5-25.25H216c-7.51,0-15,0-22.53,0a2.33,2.33,0,0,1-2.14-1.25,84.25,84.25,0,0,0-5.47-6.62,2.85,2.85,0,0,1-.93-2.12c0-5.1,0-10.21,0-15.32Zm32.84,21.73a78.29,78.29,0,0,0-4.94-25.24,93,93,0,0,1-22.13,3.51V85.84Zm5.08,5.2a85.68,85.68,0,0,1-5.18,26.69l9.34,3.92c6.56-6.5,13-22.81,12.06-30.61Zm-38-32V37.35a9.85,9.85,0,0,0-1.34,0c-2.42.34-4.84.64-7.23,1.1a3.48,3.48,0,0,0-1.89,1.18,76.62,76.62,0,0,0-9.28,15.12c-.16.35-.28.71-.46,1.16A82.47,82.47,0,0,0,184.84,59Zm5.82,80.76c2.92-.44,5.67-.79,8.39-1.33a4.09,4.09,0,0,0,2.18-1.41,53.32,53.32,0,0,0,4-5.65c2-3.34,3.85-6.78,5.86-10.35a82.87,82.87,0,0,0-20.43-3.18Zm0-102.73V59a81,81,0,0,0,20.18-3.13,78.36,78.36,0,0,0-10.16-16.76,1.51,1.51,0,0,0-.85-.53C196.86,38.07,193.86,37.58,190.69,37.05ZM216,122.52c-2.36,4.33-4.6,8.43-6.93,12.68a50.55,50.55,0,0,0,14.3-9.61c-.62-.28-1.08-.51-1.55-.7C219.81,124.08,217.84,123.29,216,122.52Z"/><path class="cls-1" d="M170.18,139.54c-.62-2.16-1.14-4.35-1.87-6.47a42,42,0,0,0-7.94-13.29c-2.22-2.64-4.44-5.28-6.61-8-6.34-7.83-4.78-19.55,3.29-26.07,10.5-8.47,26.75-4.68,31.87,7.57,2.46,5.89,2.14,11.74-1.45,17.12-2.25,3.37-4.81,6.53-7.28,9.75a57.76,57.76,0,0,0-9.61,18.47,7.67,7.67,0,0,1-.32.84S170.18,139.53,170.18,139.54Zm9.22-39.79a9.27,9.27,0,1,0-9.33,9.17A9.33,9.33,0,0,0,179.4,99.75Z"/><path class="cls-1" d="M146.82,67.28c-.18-.79-.35-1.58-.54-2.37a39.57,39.57,0,0,0-8.22-16.2c-2.27-2.76-4.6-5.48-6.88-8.24-4.91-5.93-6-12.57-3-19.58,3.15-7.21,9-11.06,16.8-11.81a20,20,0,0,1,21.06,13.05,17.52,17.52,0,0,1-1.89,16.16c-1.43,2.14-3,4.22-4.58,6.21C154,51.33,149.4,58.66,146.82,67.28Zm-9.18-40a9.25,9.25,0,1,0,9.29-9.17A9.24,9.24,0,0,0,137.64,27.32Z"/><path class="cls-1" d="M229.11,58.33c-.27-1.13-.52-2.27-.81-3.4-1.78-7-5.64-12.69-10.29-18-1.86-2.14-3.63-4.36-5.41-6.56-5.46-6.72-5.14-17.91,2.42-24.91C226-4.65,244.33-.08,248.59,13.88a17.52,17.52,0,0,1-2.17,15.52c-1.34,2-2.75,3.93-4.27,5.79C236.48,42.14,231.7,49.58,229.11,58.33Zm9.29-39.86a9.25,9.25,0,1,0-9.24,9.24A9.27,9.27,0,0,0,238.4,18.47Z"/><path class="cls-1" d="M148.51,121.68c1.82-.79,3.59-1.52,5.33-2.32a1.12,1.12,0,0,1,1.57.35c.88,1.07,1.82,2.1,2.83,3.26L152,125.6c1.51,1.27,2.76,2.49,4.18,3.46,2.52,1.73,5.14,3.29,7.7,4.95.44.29,1,.67,1.14,1.12.82,3.05,1.53,6.14,2.31,9.37-36.24-12.69-51.32-56.94-29.26-89.5,1.11,2.24,2.13,4.32,3.18,6.4a5,5,0,0,1-.07,5,46.78,46.78,0,0,0-4.86,18.08c0,.43,0,.85,0,1.39h15c-1,1.67-2,3.22-3,4.71a1.58,1.58,0,0,1-1.14.36c-3.14,0-6.29,0-9.43,0h-1.39C135.46,98.73,141.87,115,148.51,121.68Z"/><path class="cls-1" d="M309.69,95.25,274.11,201.46a8.09,8.09,0,0,1-7.76,5.88h-157a8,8,0,0,1-7.78-6L56.07,50.9H5a5,5,0,0,1,0-10H63.76L75.71,86l21.94-.21c5.8,0,11.6-.09,16-.1h.45v.45a73,73,0,0,0,146,0c0-.34,0-.68,0-1L301.92,85h0a8.05,8.05,0,0,1,7.74,10.22Z"/><path class="cls-1" d="M157.85,223.21A10.78,10.78,0,1,1,147.07,234a10.79,10.79,0,0,1,10.78-10.78m0-8A18.78,18.78,0,1,0,176.64,234a18.78,18.78,0,0,0-18.79-18.78Z"/><path class="cls-1" d="M228.29,224.46a10.79,10.79,0,1,1-10.79,10.78,10.8,10.8,0,0,1,10.79-10.78m0-8a18.79,18.79,0,1,0,18.78,18.78,18.78,18.78,0,0,0-18.78-18.78Z"/></g></g></svg>