<?xml version="1.0" standalone="no"?>
<!DOCTYPE svg PUBLIC "-//W3C//DTD SVG 20010904//EN"
 "http://www.w3.org/TR/2001/REC-SVG-20010904/DTD/svg10.dtd">
<svg  version="1.0" xmlns="http://www.w3.org/2000/svg"
 width="14px" height="14px" viewBox="0 0 512.000000 512.000000"
 preserveAspectRatio="xMidYMid meet">

<g transform="translate(0.000000,512.000000) scale(0.100000,-0.100000)"
fill="#fff" stroke="none">
<path d="M2534 4881 c-12 -5 -31 -22 -43 -37 -20 -26 -21 -36 -21 -304 0 -265
1 -279 21 -303 20 -26 56 -40 130 -52 76 -12 159 -105 159 -177 l0 -26 -77 34
c-87 38 -111 41 -152 19 -56 -29 -66 -124 -17 -163 13 -10 51 -29 85 -42 33
-14 61 -28 61 -31 0 -13 -63 -29 -115 -29 -108 0 -187 73 -205 190 -8 52 -16
70 -40 93 -41 37 -89 37 -132 -2 -35 -31 -37 -46 -25 -185 l2 -29 -627 -233
-627 -232 -48 15 c-95 29 -209 -2 -282 -77 -45 -46 -81 -130 -81 -189 l0 -39
-122 -4 c-107 -3 -130 -7 -178 -29 -69 -33 -132 -96 -168 -168 l-27 -56 0
-1170 0 -1170 28 -57 c34 -69 115 -145 183 -173 48 -20 75 -20 2318 -23 2467
-2 2334 -5 2423 51 52 33 111 100 137 156 l21 46 0 1170 0 1170 -28 57 c-36
72 -97 134 -167 167 -48 22 -71 26 -177 29 l-123 4 0 39 c0 59 -36 143 -81
189 -169 174 -465 70 -486 -171 l-6 -59 -1487 0 -1487 0 -6 62 c-3 35 -4 65
-2 67 9 9 1211 451 1227 451 9 0 20 -5 23 -10 13 -21 125 -70 189 -81 118 -22
258 20 350 106 l39 36 312 -136 c172 -74 322 -135 333 -135 81 0 132 100 83
162 -13 16 -119 67 -330 158 l-310 135 5 50 c21 180 -101 363 -288 434 l-28
11 0 215 0 215 -27 30 c-30 32 -75 45 -109 31z m-1709 -1697 c19 -8 45 -55 45
-84 0 -19 -6 -20 -85 -20 -79 0 -85 1 -85 20 0 26 26 77 42 83 19 8 64 8 83 1z
m3550 0 c19 -8 45 -55 45 -84 0 -19 -6 -20 -85 -20 -79 0 -85 1 -85 20 0 26
26 77 42 83 19 8 64 8 83 1z m471 -328 c17 -10 40 -33 50 -50 18 -30 19 -71
19 -1151 0 -1080 -1 -1121 -19 -1151 -10 -17 -31 -39 -46 -48 -26 -15 -214
-16 -2290 -16 -2076 0 -2264 1 -2290 16 -15 9 -36 31 -46 48 -18 30 -19 73
-22 1129 -1 724 1 1112 8 1136 12 46 52 88 94 100 18 6 958 9 2271 8 2175 -2
2241 -3 2271 -21z"/>
<path d="M895 2581 c-11 -5 -29 -19 -40 -31 -20 -22 -20 -36 -20 -896 l0 -874
26 -25 c56 -56 147 -34 168 42 15 53 15 1663 0 1716 -16 59 -79 90 -134 68z"/>
<path d="M1694 2575 c-17 -9 -36 -27 -43 -41 -8 -18 -11 -266 -11 -887 0 -802
2 -863 18 -883 43 -54 112 -55 156 -3 l26 31 0 864 0 864 -27 30 c-34 37 -77
46 -119 25z"/>
<path d="M2508 2574 c-60 -32 -58 6 -58 -922 l0 -849 23 -34 c45 -67 134 -61
169 11 17 32 18 95 18 873 0 918 2 890 -59 921 -37 20 -58 20 -93 0z"/>
<path d="M3334 2580 c-12 -4 -31 -21 -43 -36 l-21 -27 0 -864 0 -865 34 -34
c48 -48 105 -44 148 10 16 20 18 81 18 883 0 624 -3 869 -11 887 -12 25 -64
57 -91 55 -7 0 -23 -4 -34 -9z"/>
<path d="M4133 2570 c-21 -13 -35 -31 -42 -57 -15 -53 -15 -1663 0 -1716 21
-76 112 -98 168 -42 l26 25 3 859 c1 550 -1 868 -8 885 -11 29 -64 66 -95 66
-11 0 -34 -9 -52 -20z"/>
<path d="M3768 3491 c-27 -24 -33 -36 -33 -69 0 -49 21 -75 87 -108 84 -43
156 -26 178 42 21 62 -6 104 -88 140 -70 32 -104 31 -144 -5z"/>
</g>
</svg>
